<?xml version="1.0" encoding="UTF-8"?>
<svg width="28px" height="28px" viewBox="0 0 28 28" version="1.1" xmlns="http://www.w3.org/2000/svg" xmlns:xlink="http://www.w3.org/1999/xlink">
    <defs></defs>
    <g id="Page-1" stroke="none" stroke-width="1" fill="none" fill-rule="evenodd">
        <g id="sign_in" transform="translate(-174.000000, -197.000000)">
            <g id="Group" transform="translate(72.000000, 197.000000)">
                <g id="step_2" transform="translate(102.000000, 0.000000)">
                    <circle id="Oval-2" fill-opacity="0.16" fill="#000000" cx="14" cy="14" r="14"></circle>
                    <path d="M17.0205078,19.0898438 L10.1982422,19.0898438 L10.1982422,17.7363281 L13.4179688,14.3046875 C13.6595064,14.0403633 13.8634432,13.7988292 14.0297852,13.5800781 C14.1961271,13.361327 14.3305659,13.1608082 14.4331055,12.9785156 C14.535645,12.796223 14.608561,12.6264656 14.6518555,12.4692383 C14.69515,12.3120109 14.7167969,12.1604825 14.7167969,12.0146484 C14.7167969,11.5725889 14.6051443,11.2250989 14.3818359,10.972168 C14.1585275,10.719237 13.8395203,10.5927734 13.4248047,10.5927734 C13.1923817,10.5927734 12.9861663,10.634928 12.8061523,10.7192383 C12.6261384,10.8035486 12.4757493,10.9197584 12.3549805,11.0678711 C12.2342116,11.2159838 12.1419274,11.3925771 12.078125,11.5976562 C12.0143226,11.8027354 11.9824219,12.0260405 11.9824219,12.2675781 L10,12.2675781 C10,11.8209613 10.0797518,11.399416 10.2392578,11.0029297 C10.3987638,10.6064433 10.6289047,10.2600926 10.9296875,9.96386719 C11.2304703,9.66764175 11.5939106,9.43294357 12.0200195,9.25976562 C12.4461284,9.08658768 12.9257786,9 13.4589844,9 C13.9830755,9 14.4467753,9.06494076 14.8500977,9.19482422 C15.25342,9.32470768 15.5917955,9.51041546 15.8652344,9.75195312 C16.1386732,9.99349079 16.3460279,10.2897118 16.4873047,10.640625 C16.6285814,10.9915382 16.6992188,11.38574 16.6992188,11.8232422 C16.6992188,12.1559261 16.6468104,12.477212 16.5419922,12.7871094 C16.437174,13.0970068 16.2890635,13.4068995 16.0976562,13.7167969 C15.906249,14.0266943 15.6749688,14.3400049 15.4038086,14.6567383 C15.1326484,14.9734716 14.8307308,15.3027327 14.4980469,15.6445312 L12.7412109,17.4970703 L17.0205078,17.4970703 L17.0205078,19.0898438 Z" id="2" fill-opacity="0.87" fill="#FFFFFF"></path>
                </g>
            </g>
        </g>
    </g>
</svg>