<?xml version="1.0" encoding="UTF-8"?>
<svg width="28px" height="28px" viewBox="0 0 28 28" version="1.1" xmlns="http://www.w3.org/2000/svg" xmlns:xlink="http://www.w3.org/1999/xlink">
    <defs></defs>
    <g id="Page-1" stroke="none" stroke-width="1" fill="none" fill-rule="evenodd">
        <g id="sign_in" transform="translate(-266.000000, -197.000000)">
            <g id="Group" transform="translate(72.000000, 197.000000)">
                <g id="step_3" transform="translate(194.000000, 0.000000)">
                    <circle id="Oval-2" fill-opacity="0.16" fill="#000000" cx="14" cy="14" r="14"></circle>
                    <path d="M13.2490234,13.2382812 L14.3017578,13.2382812 C14.8030624,13.2382812 15.174478,13.112957 15.4160156,12.8623047 C15.6575533,12.6116524 15.7783203,12.2789734 15.7783203,11.8642578 C15.7783203,11.6819652 15.7509768,11.5122078 15.6962891,11.3549805 C15.6416013,11.1977531 15.5584315,11.0633144 15.4467773,10.9516602 C15.3351231,10.840006 15.1949878,10.752279 15.0263672,10.6884766 C14.8577466,10.6246742 14.6595063,10.5927734 14.4316406,10.5927734 C14.249348,10.5927734 14.077312,10.6189776 13.9155273,10.6713867 C13.7537427,10.7237958 13.6124681,10.7978511 13.4916992,10.8935547 C13.3709304,10.9892583 13.2752282,11.1066074 13.2045898,11.2456055 C13.1339515,11.3846036 13.0986328,11.5406892 13.0986328,11.7138672 L11.1230469,11.7138672 C11.1230469,11.3037089 11.2084952,10.931154 11.3793945,10.5961914 C11.5502938,10.2612288 11.7827134,9.97640091 12.0766602,9.74169922 C12.3706069,9.50699752 12.7158183,9.32470768 13.1123047,9.19482422 C13.508791,9.06494076 13.9326149,9 14.3837891,9 C14.8850937,9 15.3419576,9.06038351 15.7543945,9.18115234 C16.1668315,9.30192118 16.5211574,9.4819324 16.8173828,9.72119141 C17.1136083,9.96045042 17.3437492,10.2566714 17.5078125,10.6098633 C17.6718758,10.9630552 17.7539062,11.372068 17.7539062,11.8369141 C17.7539062,12.0511078 17.7208662,12.2630198 17.6547852,12.4726562 C17.5887041,12.6822927 17.4907233,12.8793936 17.3608398,13.0639648 C17.2309564,13.2485361 17.0725921,13.4194328 16.8857422,13.5766602 C16.6988923,13.7338875 16.4847017,13.867187 16.2431641,13.9765625 C16.8037137,14.1770843 17.2218411,14.4778626 17.4975586,14.8789062 C17.7732761,15.2799499 17.9111328,15.7539035 17.9111328,16.3007812 C17.9111328,16.7656273 17.8211272,17.1803367 17.6411133,17.5449219 C17.4610994,17.909507 17.2138688,18.2159818 16.8994141,18.4643555 C16.5849594,18.7127291 16.2124045,18.9018548 15.7817383,19.0317383 C15.3510721,19.1616217 14.8850937,19.2265625 14.3837891,19.2265625 C13.9599588,19.2265625 13.5452494,19.1695969 13.1396484,19.0556641 C12.7340475,18.9417312 12.3728857,18.7662772 12.0561523,18.5292969 C11.739419,18.2923165 11.4842132,17.9949562 11.2905273,17.637207 C11.0968415,17.2794578 11,16.8544946 11,16.3623047 L12.9755859,16.3623047 C12.9755859,16.5491546 13.0120439,16.7200513 13.0849609,16.875 C13.157878,17.0299487 13.2592767,17.1632481 13.3891602,17.2749023 C13.5190436,17.3865565 13.6728507,17.4742835 13.8505859,17.5380859 C14.0283212,17.6018883 14.2220042,17.6337891 14.4316406,17.6337891 C14.6640637,17.6337891 14.873697,17.6018883 15.0605469,17.5380859 C15.2473968,17.4742835 15.4057611,17.3819993 15.5356445,17.2612305 C15.665528,17.1404616 15.7646481,16.9969084 15.8330078,16.8305664 C15.9013675,16.6642244 15.9355469,16.4785167 15.9355469,16.2734375 C15.9355469,16.0091133 15.8979496,15.7823903 15.8227539,15.5932617 C15.7475582,15.4041332 15.6393236,15.2503261 15.4980469,15.1318359 C15.3567701,15.0133458 15.1847341,14.9256188 14.9819336,14.8686523 C14.7791331,14.8116859 14.5524101,14.7832031 14.3017578,14.7832031 L13.2490234,14.7832031 L13.2490234,13.2382812 Z" id="3" fill-opacity="0.87" fill="#FFFFFF"></path>
                </g>
            </g>
        </g>
    </g>
</svg>